<mxfile host="app.diagrams.net" agent="Mozilla/5.0 (Windows NT 10.0; Win64; x64) AppleWebKit/537.36 (KHTML, like Gecko) Chrome/126.0.0.0 Safari/537.36 Edg/126.0.0.0" version="24.8.2">
  <diagram id="prtHgNgQTEPvFCAcTncT" name="Page-1">
    <mxGraphModel dx="1492" dy="753" grid="0" gridSize="10" guides="1" tooltips="1" connect="1" arrows="1" fold="1" page="0" pageScale="1" pageWidth="827" pageHeight="1169" math="0" shadow="0">
      <root>
        <mxCell id="0" />
        <mxCell id="1" parent="0" />
        <mxCell id="utaojeMMkkSidGva7oOF-22" style="rounded=0;orthogonalLoop=1;jettySize=auto;html=1;exitX=1;exitY=0.5;exitDx=0;exitDy=0;entryX=0;entryY=0;entryDx=0;entryDy=0;dashed=1;" edge="1" parent="1" source="utaojeMMkkSidGva7oOF-1" target="utaojeMMkkSidGva7oOF-21">
          <mxGeometry relative="1" as="geometry" />
        </mxCell>
        <mxCell id="utaojeMMkkSidGva7oOF-1" value="UI" style="shape=module;align=left;spacingLeft=20;align=center;verticalAlign=top;whiteSpace=wrap;html=1;" vertex="1" parent="1">
          <mxGeometry x="72" y="168" width="100" height="50" as="geometry" />
        </mxCell>
        <mxCell id="utaojeMMkkSidGva7oOF-27" style="rounded=0;orthogonalLoop=1;jettySize=auto;html=1;exitX=0.75;exitY=1;exitDx=0;exitDy=0;entryX=0;entryY=0.5;entryDx=0;entryDy=0;dashed=1;" edge="1" parent="1" source="utaojeMMkkSidGva7oOF-7" target="utaojeMMkkSidGva7oOF-26">
          <mxGeometry relative="1" as="geometry" />
        </mxCell>
        <mxCell id="utaojeMMkkSidGva7oOF-31" style="rounded=0;orthogonalLoop=1;jettySize=auto;html=1;exitX=0;exitY=1;exitDx=10;exitDy=0;exitPerimeter=0;entryX=1;entryY=0.5;entryDx=0;entryDy=0;dashed=1;" edge="1" parent="1" source="utaojeMMkkSidGva7oOF-7" target="utaojeMMkkSidGva7oOF-30">
          <mxGeometry relative="1" as="geometry" />
        </mxCell>
        <mxCell id="utaojeMMkkSidGva7oOF-7" value="back end" style="shape=module;align=left;spacingLeft=20;align=center;verticalAlign=top;whiteSpace=wrap;html=1;" vertex="1" parent="1">
          <mxGeometry x="313" y="149" width="100" height="50" as="geometry" />
        </mxCell>
        <mxCell id="utaojeMMkkSidGva7oOF-18" style="rounded=0;orthogonalLoop=1;jettySize=auto;html=1;exitX=0.75;exitY=0.1;exitDx=0;exitDy=0;exitPerimeter=0;entryX=0;entryY=1;entryDx=0;entryDy=0;dashed=1;" edge="1" parent="1" source="utaojeMMkkSidGva7oOF-8" target="utaojeMMkkSidGva7oOF-14">
          <mxGeometry relative="1" as="geometry" />
        </mxCell>
        <mxCell id="utaojeMMkkSidGva7oOF-8" value="user" style="shape=umlActor;verticalLabelPosition=bottom;verticalAlign=top;html=1;" vertex="1" parent="1">
          <mxGeometry x="-34" y="348" width="30" height="60" as="geometry" />
        </mxCell>
        <mxCell id="utaojeMMkkSidGva7oOF-17" value="" style="group" vertex="1" connectable="0" parent="1">
          <mxGeometry x="88" y="218" width="16" height="58" as="geometry" />
        </mxCell>
        <mxCell id="utaojeMMkkSidGva7oOF-13" value="" style="endArrow=none;html=1;rounded=0;" edge="1" parent="utaojeMMkkSidGva7oOF-17">
          <mxGeometry width="50" height="50" relative="1" as="geometry">
            <mxPoint x="8" y="42" as="sourcePoint" />
            <mxPoint x="8" as="targetPoint" />
          </mxGeometry>
        </mxCell>
        <mxCell id="utaojeMMkkSidGva7oOF-14" value="" style="ellipse;whiteSpace=wrap;html=1;aspect=fixed;" vertex="1" parent="utaojeMMkkSidGva7oOF-17">
          <mxGeometry y="42" width="16" height="16" as="geometry" />
        </mxCell>
        <mxCell id="utaojeMMkkSidGva7oOF-19" value="" style="group" vertex="1" connectable="0" parent="1">
          <mxGeometry x="338" y="199" width="16" height="58" as="geometry" />
        </mxCell>
        <mxCell id="utaojeMMkkSidGva7oOF-20" value="" style="endArrow=none;html=1;rounded=0;" edge="1" parent="utaojeMMkkSidGva7oOF-19">
          <mxGeometry width="50" height="50" relative="1" as="geometry">
            <mxPoint x="8" y="42" as="sourcePoint" />
            <mxPoint x="8" as="targetPoint" />
          </mxGeometry>
        </mxCell>
        <mxCell id="utaojeMMkkSidGva7oOF-21" value="" style="ellipse;whiteSpace=wrap;html=1;aspect=fixed;" vertex="1" parent="utaojeMMkkSidGva7oOF-19">
          <mxGeometry y="42" width="16" height="16" as="geometry" />
        </mxCell>
        <mxCell id="utaojeMMkkSidGva7oOF-37" style="rounded=0;orthogonalLoop=1;jettySize=auto;html=1;exitX=0.25;exitY=0;exitDx=0;exitDy=0;entryX=1;entryY=1;entryDx=0;entryDy=0;dashed=1;" edge="1" parent="1" source="utaojeMMkkSidGva7oOF-23" target="utaojeMMkkSidGva7oOF-36">
          <mxGeometry relative="1" as="geometry" />
        </mxCell>
        <mxCell id="utaojeMMkkSidGva7oOF-23" value="database" style="shape=module;align=left;spacingLeft=20;align=center;verticalAlign=top;whiteSpace=wrap;html=1;" vertex="1" parent="1">
          <mxGeometry x="466" y="264" width="100" height="50" as="geometry" />
        </mxCell>
        <mxCell id="utaojeMMkkSidGva7oOF-24" value="" style="group" vertex="1" connectable="0" parent="1">
          <mxGeometry x="488" y="315" width="16" height="58" as="geometry" />
        </mxCell>
        <mxCell id="utaojeMMkkSidGva7oOF-25" value="" style="endArrow=none;html=1;rounded=0;" edge="1" parent="utaojeMMkkSidGva7oOF-24">
          <mxGeometry width="50" height="50" relative="1" as="geometry">
            <mxPoint x="8" y="42" as="sourcePoint" />
            <mxPoint x="8" as="targetPoint" />
          </mxGeometry>
        </mxCell>
        <mxCell id="utaojeMMkkSidGva7oOF-26" value="" style="ellipse;whiteSpace=wrap;html=1;aspect=fixed;" vertex="1" parent="utaojeMMkkSidGva7oOF-24">
          <mxGeometry y="42" width="16" height="16" as="geometry" />
        </mxCell>
        <mxCell id="utaojeMMkkSidGva7oOF-28" value="" style="group" vertex="1" connectable="0" parent="1">
          <mxGeometry x="144" y="219" width="46" height="58" as="geometry" />
        </mxCell>
        <mxCell id="utaojeMMkkSidGva7oOF-29" value="" style="endArrow=none;html=1;rounded=0;" edge="1" parent="utaojeMMkkSidGva7oOF-28">
          <mxGeometry width="50" height="50" relative="1" as="geometry">
            <mxPoint x="8" y="42" as="sourcePoint" />
            <mxPoint x="8" as="targetPoint" />
          </mxGeometry>
        </mxCell>
        <mxCell id="utaojeMMkkSidGva7oOF-30" value="" style="ellipse;whiteSpace=wrap;html=1;aspect=fixed;" vertex="1" parent="utaojeMMkkSidGva7oOF-28">
          <mxGeometry y="42" width="16" height="16" as="geometry" />
        </mxCell>
        <mxCell id="utaojeMMkkSidGva7oOF-41" value="接收" style="text;html=1;align=center;verticalAlign=middle;resizable=0;points=[];autosize=1;strokeColor=none;fillColor=none;" vertex="1" parent="utaojeMMkkSidGva7oOF-28">
          <mxGeometry x="4" y="8" width="42" height="26" as="geometry" />
        </mxCell>
        <mxCell id="utaojeMMkkSidGva7oOF-35" value="" style="endArrow=none;html=1;rounded=0;exitX=1;exitY=0.25;exitDx=0;exitDy=0;" edge="1" parent="1" source="utaojeMMkkSidGva7oOF-7">
          <mxGeometry width="50" height="50" relative="1" as="geometry">
            <mxPoint x="428" y="182" as="sourcePoint" />
            <mxPoint x="454" y="162" as="targetPoint" />
          </mxGeometry>
        </mxCell>
        <mxCell id="utaojeMMkkSidGva7oOF-36" value="" style="ellipse;whiteSpace=wrap;html=1;aspect=fixed;" vertex="1" parent="1">
          <mxGeometry x="453" y="155" width="16" height="16" as="geometry" />
        </mxCell>
        <mxCell id="utaojeMMkkSidGva7oOF-39" style="rounded=0;orthogonalLoop=1;jettySize=auto;html=1;exitX=0.75;exitY=0;exitDx=0;exitDy=0;entryX=0;entryY=1;entryDx=0;entryDy=0;dashed=1;" edge="1" parent="1" source="utaojeMMkkSidGva7oOF-38" target="utaojeMMkkSidGva7oOF-21">
          <mxGeometry relative="1" as="geometry" />
        </mxCell>
        <mxCell id="utaojeMMkkSidGva7oOF-38" value="Api" style="shape=module;align=left;spacingLeft=20;align=center;verticalAlign=top;whiteSpace=wrap;html=1;" vertex="1" parent="1">
          <mxGeometry x="181" y="314" width="100" height="50" as="geometry" />
        </mxCell>
        <mxCell id="utaojeMMkkSidGva7oOF-40" value="访问" style="text;html=1;align=center;verticalAlign=middle;resizable=0;points=[];autosize=1;strokeColor=none;fillColor=none;" vertex="1" parent="1">
          <mxGeometry x="56" y="229" width="42" height="26" as="geometry" />
        </mxCell>
        <mxCell id="utaojeMMkkSidGva7oOF-42" value="访问" style="text;html=1;align=center;verticalAlign=middle;resizable=0;points=[];autosize=1;strokeColor=none;fillColor=none;" vertex="1" parent="1">
          <mxGeometry x="348" y="207" width="42" height="26" as="geometry" />
        </mxCell>
        <mxCell id="utaojeMMkkSidGva7oOF-44" value="接收" style="text;html=1;align=center;verticalAlign=middle;resizable=0;points=[];autosize=1;strokeColor=none;fillColor=none;" vertex="1" parent="1">
          <mxGeometry x="453" y="129" width="42" height="26" as="geometry" />
        </mxCell>
        <mxCell id="utaojeMMkkSidGva7oOF-45" value="访问" style="text;html=1;align=center;verticalAlign=middle;resizable=0;points=[];autosize=1;strokeColor=none;fillColor=none;" vertex="1" parent="1">
          <mxGeometry x="493" y="326" width="42" height="26" as="geometry" />
        </mxCell>
      </root>
    </mxGraphModel>
  </diagram>
</mxfile>
